<?xml version="1.0" standalone="no"?>
<!DOCTYPE svg PUBLIC "-//W3C//DTD SVG 20010904//EN"
 "http://www.w3.org/TR/2001/REC-SVG-20010904/DTD/svg10.dtd">
<svg version="1.0" xmlns="http://www.w3.org/2000/svg"
 width="1134.000000pt" height="116.000000pt" viewBox="0 0 1134.000000 116.000000"
 preserveAspectRatio="xMidYMid meet">

<g transform="translate(0.000000,116.000000) scale(0.100000,-0.100000)"
fill="#000000" stroke="none">
<path d="M0 580 l0 -580 5670 0 5670 0 0 580 0 580 -5670 0 -5670 0 0 -580z
m346 223 l59 -86 3 86 3 87 29 0 30 0 0 -145 0 -145 -27 0 c-24 1 -37 14 -88
91 l-60 90 -3 -91 -3 -90 -29 0 -30 0 0 145 0 145 28 0 c24 0 37 -12 88 -87z
m494 32 c0 -18 5 -25 20 -25 15 0 20 -7 20 -25 0 -18 -5 -25 -20 -25 -17 0
-20 -7 -20 -51 0 -42 3 -52 20 -56 13 -3 20 -14 20 -29 0 -20 -5 -24 -30 -24
-49 0 -70 30 -70 100 0 47 -3 60 -15 60 -9 0 -15 9 -15 25 0 16 6 25 15 25 9
0 15 9 15 25 0 21 5 25 30 25 25 0 30 -4 30 -25z m-150 -54 c36 -36 46 -73 30
-112 -18 -43 -56 -69 -102 -69 -32 0 -47 7 -74 34 -47 47 -47 95 0 142 46 46
104 48 146 5z m379 15 c28 -15 51 -53 51 -86 0 -18 -7 -20 -75 -20 -77 0 -95
-11 -51 -31 17 -8 29 -8 44 0 25 13 72 15 72 2 0 -5 -14 -21 -31 -35 -69 -58
-169 -11 -169 79 0 83 83 130 159 91z m218 -8 c43 -41 18 -63 -42 -36 -18 8
-29 8 -36 1 -8 -8 -1 -13 23 -18 76 -16 103 -70 58 -115 -38 -38 -130 -19
-143 30 -4 16 0 20 22 20 15 0 32 -5 38 -11 13 -13 43 -5 43 10 0 6 -12 13
-27 17 -49 11 -73 32 -73 64 0 57 90 82 137 38z m8763 -543 c0 -35 3 -43 15
-39 21 9 19 -10 -5 -31 -19 -17 -21 -17 -40 0 -24 21 -26 40 -5 31 12 -4 15 4
15 39 0 25 5 45 10 45 6 0 10 -20 10 -45z m-9790 -39 c0 -26 5 -46 13 -49 6
-3 -4 -5 -23 -5 -19 0 -29 2 -22 5 6 2 12 17 12 33 0 16 -6 31 -12 33 -10 4
-9 8 2 16 25 18 30 13 30 -33z m98 28 c8 -15 10 -15 15 0 4 10 17 15 34 15 24
-2 25 -2 6 -6 -28 -5 -31 -23 -4 -23 22 0 34 -25 26 -51 -4 -12 -16 -19 -30
-19 -24 0 -42 16 -30 28 3 3 10 0 14 -7 10 -16 31 -6 31 14 0 35 -41 27 -58
-11 -16 -33 -58 -33 -74 1 -16 35 3 75 36 75 14 0 29 -7 34 -16z m778 1 c3 -8
-4 -28 -15 -44 l-21 -30 22 -4 c14 -3 8 -5 -16 -6 l-38 -1 27 36 c21 27 24 39
16 47 -9 9 -14 8 -21 -3 -5 -8 -12 -11 -15 -8 -12 12 6 28 31 28 14 0 27 -7
30 -15z m76 -25 c4 -42 -9 -77 -19 -52 -2 6 -16 12 -29 12 l-25 0 22 40 c29
51 46 51 51 0z m9094 15 c13 -20 19 -22 34 -13 27 17 52 3 48 -29 -4 -35 -41
-44 -60 -14 -12 19 -12 19 -26 0 -8 -11 -25 -19 -43 -19 -28 0 -29 1 -29 50 0
49 1 50 30 50 20 0 35 -8 46 -25z m304 -25 c0 -27 -4 -50 -10 -50 -5 0 -10 23
-10 50 0 28 5 50 10 50 6 0 10 -22 10 -50z m240 -1 l0 -50 -32 3 c-29 3 -33 6
-33 33 0 23 5 31 23 33 12 2 22 10 22 18 0 8 5 14 10 14 6 0 10 -23 10 -51z
m-10174 26 c9 -8 11 -15 5 -15 -15 0 -14 -47 2 -54 6 -3 3 -5 -8 -3 -20 2 -36
47 -27 75 5 16 10 15 28 -3z m10413 -13 c-13 -5 -11 -36 3 -50 9 -9 8 -12 -5
-12 -12 0 -17 8 -17 30 0 17 -5 30 -10 30 -7 0 -6 5 2 13 9 10 16 11 24 3 7
-6 8 -12 3 -14z m-10542 -32 c1 -34 1 -34 -5 -5 -4 17 -14 30 -22 30 -8 0 -18
-13 -21 -30 -6 -29 -7 -28 -8 8 -1 36 1 38 27 35 23 -3 27 -8 29 -38z m84 24
c9 -11 10 -20 2 -32 -15 -24 -44 -27 -59 -7 -28 38 27 75 57 39z m129 -4 c10
-18 8 -20 -20 -20 -19 0 -29 -4 -25 -10 4 -6 16 -8 27 -4 14 4 18 2 14 -5 -21
-33 -74 6 -55 41 13 24 46 23 59 -2z m66 9 c4 -8 0 -9 -15 -4 -11 3 -21 2 -21
-3 0 -5 9 -12 21 -15 12 -3 19 -12 17 -19 -6 -18 -38 -23 -52 -8 -8 9 -6 11
12 5 13 -4 22 -2 22 4 0 6 -6 11 -14 11 -18 0 -29 16 -21 30 8 13 42 13 51 -1z
m109 -24 c0 -27 -3 -30 -30 -30 -21 0 -31 5 -33 18 -6 33 6 49 35 45 24 -3 28
-8 28 -33z m83 -2 c2 -19 -1 -33 -7 -33 -6 0 -11 14 -11 31 0 38 -24 35 -28
-4 -5 -40 -22 -33 -22 9 0 34 1 35 33 32 28 -3 32 -7 35 -35z m307 27 c4 -6
-4 -9 -17 -7 -17 1 -23 -3 -23 -18 0 -15 6 -19 25 -17 18 2 22 0 13 -9 -29
-29 -74 7 -59 47 6 16 52 19 61 4z m76 -6 c9 -11 10 -20 2 -32 -15 -24 -44
-27 -59 -7 -28 38 27 75 57 39z m39 -15 c0 -39 22 -34 31 7 6 27 7 26 8 -9 1
-36 -1 -38 -26 -35 -23 2 -29 8 -31 36 -2 18 1 32 7 32 6 0 11 -14 11 -31z
m92 19 c-7 -7 -12 -22 -12 -35 0 -13 -4 -23 -10 -23 -5 0 -10 16 -10 35 0 29
4 35 22 35 17 0 19 -3 10 -12z m64 0 c5 -8 2 -9 -9 -5 -22 8 -22 -2 0 -18 9
-7 13 -17 9 -23 -9 -14 -46 -16 -46 -2 0 5 7 7 15 4 8 -4 15 -1 15 5 0 6 -7
11 -15 11 -8 0 -15 9 -15 20 0 22 34 28 46 8z m82 -10 c3 -14 -3 -18 -23 -18
-16 0 -24 -4 -20 -10 4 -6 16 -8 28 -4 17 5 19 3 11 -6 -29 -30 -76 5 -60 46
8 21 60 14 64 -8z m62 11 c0 -6 -7 -9 -15 -5 -8 3 -15 1 -15 -4 0 -6 7 -10 15
-10 8 0 15 -9 15 -20 0 -15 -7 -20 -25 -20 -14 0 -25 5 -25 11 0 6 7 9 15 5
20 -7 19 4 -2 19 -9 7 -13 17 -9 23 9 15 46 16 46 1z m8680 -4 c0 -8 5 -15 10
-15 6 0 10 7 10 15 0 20 10 19 26 -2 13 -17 13 -17 14 0 0 9 5 17 10 17 12 0
12 0 -1 -39 -12 -34 -29 -42 -29 -13 -1 16 -1 16 -14 0 -18 -24 -22 -23 -35
13 -13 39 -13 39 -1 39 6 0 10 -7 10 -15z m147 -25 c1 -33 1 -33 -5 -6 -10 41
-32 46 -32 7 0 -17 -4 -31 -10 -31 -5 0 -10 16 -10 36 0 33 2 35 28 32 23 -3
27 -8 29 -38z m118 5 c0 -25 -4 -30 -24 -30 -32 0 -49 28 -31 50 7 9 23 15 34
13 16 -2 21 -10 21 -33z m83 -3 c3 -32 2 -33 -30 -30 -38 4 -46 31 -10 36 12
2 20 7 17 12 -3 5 -12 7 -20 3 -8 -3 -15 0 -15 7 0 6 11 10 28 8 23 -2 28 -8
30 -36z m196 22 c9 -24 7 -54 -3 -54 -5 0 -11 11 -13 25 -4 35 -22 36 -26 3
-5 -40 -22 -34 -22 7 0 32 3 35 29 35 17 0 31 -6 35 -16z m77 0 c17 -21 0 -49
-32 -49 -24 0 -36 23 -25 51 7 19 40 18 57 -2z m127 4 c19 -19 14 -28 -13 -28
-14 0 -25 -5 -25 -11 0 -6 9 -8 20 -4 12 4 20 2 20 -5 0 -19 -54 -7 -58 13 -8
42 27 64 56 35z m68 0 c5 -8 2 -9 -9 -5 -22 8 -22 -2 0 -18 9 -7 13 -17 9 -23
-9 -14 -46 -16 -46 -2 0 5 7 7 15 4 8 -4 15 -1 15 5 0 6 -7 11 -15 11 -8 0
-15 9 -15 20 0 22 34 28 46 8z m-1266 -58 c0 -18 7 -20 70 -20 63 0 70 2 70
20 0 11 5 20 10 20 6 0 10 -13 10 -30 l0 -30 -90 0 -90 0 0 30 c0 17 5 30 10
30 6 0 10 -9 10 -20z"/>
<path d="M586 744 c-32 -31 -10 -94 33 -94 23 0 51 31 51 57 0 23 -29 53 -53
53 -8 0 -23 -7 -31 -16z"/>
<path d="M980 745 c-11 -13 -6 -15 35 -15 41 0 46 2 35 15 -7 8 -23 15 -35 15
-12 0 -28 -7 -35 -15z"/>
<path d="M305 221 c-8 -26 3 -63 18 -58 21 7 33 36 21 54 -16 25 -31 27 -39 4z"/>
<path d="M1177 206 c-4 -10 -5 -21 -2 -24 9 -9 17 6 13 25 -3 17 -4 17 -11 -1z"/>
<path d="M10250 200 c0 -33 3 -41 16 -38 9 2 22 11 28 21 13 20 -2 50 -28 55
-13 3 -16 -5 -16 -38z"/>
<path d="M10343 194 c-8 -21 13 -42 28 -27 13 13 5 43 -11 43 -6 0 -13 -7 -17
-16z"/>
<path d="M10797 197 c-3 -8 -1 -20 4 -28 11 -19 34 3 26 25 -8 20 -23 21 -30
3z"/>
<path d="M583 194 c-8 -21 13 -42 28 -27 13 13 5 43 -11 43 -6 0 -13 -7 -17
-16z"/>
<path d="M715 200 c-3 -5 3 -10 15 -10 12 0 18 5 15 10 -3 6 -10 10 -15 10 -5
0 -12 -4 -15 -10z"/>
<path d="M894 196 c-4 -10 -2 -22 4 -28 8 -8 13 -7 18 6 4 10 2 22 -4 28 -8 8
-13 7 -18 -6z"/>
<path d="M1353 194 c-8 -21 13 -42 28 -27 13 13 5 43 -11 43 -6 0 -13 -7 -17
-16z"/>
<path d="M1635 200 c-3 -5 1 -10 10 -10 9 0 13 5 10 10 -3 6 -8 10 -10 10 -2
0 -7 -4 -10 -10z"/>
<path d="M10643 194 c-8 -21 13 -42 28 -27 13 13 5 43 -11 43 -6 0 -13 -7 -17
-16z"/>
<path d="M10725 170 c-3 -5 -2 -10 4 -10 5 0 13 5 16 10 3 6 2 10 -4 10 -5 0
-13 -4 -16 -10z"/>
<path d="M10997 197 c-3 -8 -1 -20 4 -28 11 -19 34 3 26 25 -8 20 -23 21 -30
3z"/>
<path d="M11130 200 c0 -5 7 -10 16 -10 8 0 12 5 9 10 -3 6 -10 10 -16 10 -5
0 -9 -4 -9 -10z"/>
</g>
</svg>
